<?xml version="1.0" standalone="no"?>
<!DOCTYPE svg PUBLIC "-//W3C//DTD SVG 1.1//EN" "http://www.w3.org/Graphics/SVG/1.1/DTD/svg11.dtd" >
<svg xmlns="http://www.w3.org/2000/svg">
<metadata>
Created by FontForge 20120731 at Sun Feb 26 12:54:13 2017
 By admin
</metadata>
<defs>
<font id="iconfont" horiz-adv-x="1024" >
  <font-face 
    font-family="iconfont"
    font-weight="500"
    font-stretch="normal"
    units-per-em="1024"
    panose-1="2 0 6 3 0 0 0 0 0 0"
    ascent="896"
    descent="-128"
    x-height="792"
    bbox="-0.264151 -212 2373 896.513"
    underline-thickness="0"
    underline-position="0"
    unicode-range="U+0078-E893"
  />
<missing-glyph 
 />
    <glyph glyph-name=".notdef" 
 />
    <glyph glyph-name=".notdef" 
 />
    <glyph glyph-name=".null" horiz-adv-x="0" 
 />
    <glyph glyph-name="nonmarkingreturn" horiz-adv-x="341" 
 />
    <glyph glyph-name="x" unicode="x" horiz-adv-x="1001" 
d="M281 543q-27 -1 -53 -1h-83q-18 0 -36.5 -6t-32.5 -18.5t-23 -32t-9 -45.5v-76h912v41q0 16 -0.5 30t-0.5 18q0 13 -5 29t-17 29.5t-31.5 22.5t-49.5 9h-133v-97h-438v97zM955 310v-52q0 -23 0.5 -52t0.5 -58t-10.5 -47.5t-26 -30t-33 -16t-31.5 -4.5q-14 -1 -29.5 -0.5
t-29.5 0.5h-32l-45 128h-439l-44 -128h-29h-34q-20 0 -45 1q-25 0 -41 9.5t-25.5 23t-13.5 29.5t-4 30v167h911zM163 247q-12 0 -21 -8.5t-9 -21.5t9 -21.5t21 -8.5q13 0 22 8.5t9 21.5t-9 21.5t-22 8.5zM316 123q-8 -26 -14 -48q-5 -19 -10.5 -37t-7.5 -25t-3 -15t1 -14.5
t9.5 -10.5t21.5 -4h37h67h81h80h64h36q23 0 34 12t2 38q-5 13 -9.5 30.5t-9.5 34.5q-5 19 -11 39h-368zM336 498v228q0 11 2.5 23t10 21.5t20.5 15.5t34 6h188q31 0 51.5 -14.5t20.5 -52.5v-227h-327z" />
    <glyph glyph-name="weibiaoti1" unicode="&#xe60b;" horiz-adv-x="1025" 
d="M480 140q0 13 9.5 22.5t23 9.5t22.5 -9.5t9 -22.5v-320q0 -13 -9 -22.5t-22.5 -9.5t-23 9.5t-9.5 22.5v320zM490 162q9 10 22.5 10t23 -9.5t9.5 -23t-10 -22.5l-122 -122q-9 -10 -22.5 -10t-23 9.5t-9.5 23t10 22.5zM490 117q-10 9 -10 22.5t10 22.5v0q9 10 22.5 10
t22.5 -10l122 -122q10 -9 10 -22.5t-9.5 -23t-23 -9.5t-22.5 10zM827 485q-20 113 -109 188t-206 75t-206 -75t-109 -188q-85 -20 -141 -89.5t-56 -159.5q0 -106 75 -181t181 -75q13 0 22.5 9.5t9.5 22.5t-9.5 22.5t-22.5 9.5q-79 0 -135.5 56t-56.5 136q0 34 11 65
q11 30 31 55q42 52 106 67l41 9l7 42q16 90 87 150q34 28 76 44q43 16 89 16t89 -16q42 -16 76 -44q71 -60 87 -150l7 -42l41 -9q64 -15 106 -67q20 -25 31 -55q11 -31 11 -65q0 -80 -56 -136t-136 -56v0q-13 0 -22.5 -9.5t-9.5 -22.5t9.5 -22.5t22.5 -9.5v0q106 0 181 75
t75 181q0 90 -56 159.5t-141 89.5z" />
    <glyph glyph-name="attachment" unicode="&#xe776;" horiz-adv-x="1134" 
d="M376 14q-91 0 -155 52.5t-77 134.5q-17 109 59 186q36 36 277 276q9 9 20.5 9t19.5 -8t8 -19.5t-9 -20.5q-177 -176 -272 -270q-31 -31 -44 -71q-22 -72 19 -137t114 -75q86 -13 147 48q68 68 198 197t191 190q28 28 34 65q6 42 -19 78t-66 45q-65 14 -111 -36l-15 -15
q-30 -30 -85.5 -85t-101 -100t-85.5 -85q-15 -16 -17 -36.5t10 -37.5q15 -19 39.5 -22t42.5 13l6 6q133 133 172 171q13 13 29 8q14 -4 18 -17.5t-5 -25.5q-1 -1 -3 -4q-161 -159 -176 -174q-30 -29 -69.5 -32t-72 19.5t-43.5 62.5q-15 61 30 107l108 108q152 150 175 173
q25 25 41 35q37 23 79 24.5t77.5 -15t62 -49.5t32.5 -75q13 -83 -45 -142q-151 -151 -395 -392q-63 -63 -143 -64v0v0z" />
    <glyph glyph-name="help" unicode="&#xe782;" horiz-adv-x="1029" 
d="M2 383q0 104 40.5 198.5t109 163t163 109t198.5 40.5t198.5 -40.5t163 -109t109 -163t40.5 -198.5t-40.5 -198.5t-109 -163t-163 -109t-198.5 -40.5t-198.5 40.5t-163 109t-109 163t-40.5 198.5v0zM66 383q0 -91 35.5 -173.5t95.5 -142.5t142.5 -95.5t173.5 -35.5
t173.5 35.5t142.5 95t95.5 142.5t35.5 174t-35 173.5t-95 142.5t-142.5 95.5t-173.5 35.5t-174 -35t-143 -95t-95.5 -143t-35.5 -174v0zM706 479q-2 -60 -35 -108t-89 -70q-11 -4 -19 -8q-17 -9 -18 -29q0 -13 -1 -16q-3 -12 -12.5 -19t-20.5 -5q-13 1 -21 9.5t-9 21.5
q-2 68 58 97q10 5 17 7q42 15 65.5 52.5t18.5 80.5q-4 44 -35 76t-75 38q-56 7 -99.5 -30t-45.5 -94q0 -8 -1 -12q-3 -11 -13 -17.5t-21 -5.5q-13 2 -21 11t-7 22q0 73 46 124q80 89 192 60q112 -28 140 -145q1 -2 6 -40v0zM481 112v17q1 13 10 22t22 9t22.5 -9t9.5 -22
q1 -15 0 -34q0 -13 -9.5 -22t-22.5 -9t-22 9t-10 22v17v0z" />
    <glyph glyph-name="refresh" unicode="&#xe7a1;" 
d="M852 99h-9h-77q-23 0 -30 21q-8 23 10 35q10 7 21 7q59 1 157 0q14 0 23.5 -9t9.5 -24v-156q0 -14 -9 -23.5t-23 -9.5q-13 0 -22.5 9t-9.5 24v66v9l-6 -6q-113 -122 -268 -154q-249 -51 -442 114q-130 111 -163 279q-49 246 113 436q114 135 290 168q118 22 231.5 -9.5
t201 -110t133.5 -189.5q37 -90 37 -190q0 -13 -7.5 -22t-19.5 -10.5t-22 5t-13 18.5q-1 4 -1 13q-2 136 -78 246.5t-202 161.5q-74 30 -152.5 32.5t-149 -21.5t-131 -68t-104 -109.5t-61.5 -142.5q-29 -119 5.5 -233.5t121.5 -196t206 -107.5q254 -56 436 142l2 2q1 2 2 3v0
z" />
    <glyph glyph-name="navigation" unicode="&#xe7c5;" horiz-adv-x="1049" 
d="M76 441q45 -12 49 -13q253 -63 359 -89q7 -2 9 -9q18 -73 101 -407q5 -18 -3 -31t-25 -15q-14 -2 -24.5 5.5t-14.5 22.5q-5 22 -15 62t-14 54q-51 205 -63 251q-1 8 -9 9q-163 41 -367 92q-24 6 -38.5 23t-16.5 41q-1 22 11 41t34 28q173 74 569 241q275 116 332 140
q30 13 58.5 -1t36.5 -46q6 -22 -4 -45q-3 -7 -119 -282q-102 -242 -173 -409q-11 -26 -35 -24q-18 1 -27.5 16t-3.5 32q4 8 31 71q27 68 81 194t97.5 228.5t81.5 193.5l3 9q-451 -193 -901 -382v-1v0z" />
    <glyph glyph-name="back" unicode="&#xe833;" 
d="M303 384q7 -5 7 -6q55 -55 186 -185.5t202 -201.5q13 -13 10 -28q-2 -17 -18 -23q-16 -7 -30 5q-1 1 -5 4l-411 411q-24 24 0 48q334 334 411 412q15 14 32 10q16 -5 20.5 -20.5t-5.5 -27.5q-1 -2 -6 -6l-387 -387l-6 -5v0v0zM303 384z" />
    <glyph glyph-name="111" unicode="&#xe841;" 
d="M959 811q0 9 -5.5 14.5t-14.5 5.5q-8 0 -14 -6l-332 -331v236q0 9 -5.5 14.5t-14.5 5.5t-14.5 -5.5t-5.5 -14.5v-285q0 -9 5.5 -14.5t14.5 -5.5h285q9 0 14.5 5.5t5.5 14.5t-5.5 14.5t-14.5 5.5h-236l331 332q6 6 6 14zM451 343h-285q-9 0 -14.5 -5.5t-5.5 -14.5
t5.5 -14.5t14.5 -5.5h236l-331 -332q-6 -6 -6 -14q0 -9 5.5 -14.5t14.5 -5.5q8 0 14 6l332 331v-236q0 -9 5.5 -14.5t14.5 -5.5t14.5 5.5t5.5 14.5v285q0 9 -5.5 14.5t-14.5 5.5z" />
    <glyph glyph-name="fullscreen" unicode="&#xe845;" 
d="M553 445q0 -9 5.5 -14.5t14.5 -5.5q8 0 14 6l331 331v-236q0 -9 6 -14.5t15 -5.5t14.5 5.5t5.5 14.5v285q0 9 -5.5 14.5t-14.5 5.5h-285q-9 0 -14.5 -5.5t-5.5 -14.5t5.5 -15t14.5 -6h236l-331 -331q-6 -6 -6 -14zM85 -63h285q9 0 14.5 5.5t5.5 14.5t-5.5 15t-14.5 6
h-236l331 331q6 6 6 14q0 9 -5.5 14.5t-14.5 5.5q-8 0 -14 -6l-331 -331v236q0 9 -6 14.5t-15 5.5t-14.5 -5.5t-5.5 -14.5v-285q0 -9 5.5 -14.5t14.5 -5.5z" />
    <glyph glyph-name="clock" unicode="&#xe696;" 
d="M512 768q78 0 150 -30q68 -29 121.5 -82.5t82.5 -122.5q30 -71 30 -149q0 -79 -30 -150q-29 -68 -82.5 -121.5t-121.5 -82.5q-72 -30 -150 -30t-150 30q-68 29 -121.5 82.5t-82.5 121.5q-30 72 -30 150t30 149q29 69 82.5 122.5t121.5 82.5q72 30 150 30zM512 832
q-122 0 -225 -60t-163 -163t-60 -225t60 -225t163 -163t225 -60t225 60t163 163t60 225t-60 225t-163 163t-225 60v0zM640 344h-149q-17 0 -28.5 11.5t-11.5 28.5v224q0 17 11.5 28.5t28.5 11.5t28.5 -11.5t11.5 -28.5v-184h109q17 0 28.5 -11.5t11.5 -28.5t-11.5 -28.5
t-28.5 -11.5z" />
    <glyph glyph-name="more3" unicode="&#xe85c;" 
d="M399 384q0 -46 32.5 -79t79 -33t79.5 33t33 79q0 31 -15 57t-41 41t-56 15t-56 -15t-41 -41t-15 -57zM63 384.5q0 -30.5 15 -56.5t41 -41t56 -15t56 15t41 41t15 56.5t-15 56.5t-41 41t-56 15t-56 -15t-41 -41t-15 -56.5zM735 384.5q0 -30.5 15 -56.5t41 -41t56 -15
t56 15t41 41t15 56.5t-15 56.5t-41 41t-56 15t-56 -15t-41 -41t-15 -56.5z" />
    <glyph glyph-name="workflow" unicode="&#xe604;" 
d="M326 313q46 2 77.5 36t29.5 81q-3 45 -37 76t-80 29t-77 -36t-29 -80t36.5 -77t79.5 -29zM328 112q11 1 22 0l-11 193q-12 -2 -23 -1zM804 790q21 8 30.5 28.5t1.5 41.5q-7 21 -27.5 30.5t-41.5 2.5q-21 -8 -30.5 -28.5t-2.5 -41.5t28 -31t42 -2zM106 582
q-8 22 -28.5 31.5t-41.5 1.5t-30.5 -28.5t-2.5 -41.5q8 -21 28.5 -31t41.5 -2t30.5 28.5t2.5 41.5zM778 781q-11 1 -22 6l-31 -104q10 -1 21 -6zM222 492l-107 55q-2 -12 -9 -21l105 -54q4 10 11 20zM970 392q-7 22 -27.5 31.5t-42 1.5t-31 -28.5t-1.5 -41.5q7 -21 27.5 -31
t42.5 -2q21 8 30.5 28.5t1.5 41.5zM886 425l-91 75q-7 -9 -15 -17l89 -74q7 10 17 16zM426 481q5 -9 9 -21l162 58q-5 11 -7 22zM271.5 74q-31.5 -29 -33.5 -72t26.5 -74.5t71.5 -33t74 27.5q32 28 34 71t-27 75q-29 31 -71.5 33t-74 -27zM805 606q-16 42 -57 61t-84 4
q-42 -16 -61 -57t-4 -83t56.5 -61.5t83.5 -3.5q42 15 61.5 56t4.5 84z" />
    <glyph glyph-name="eye" unicode="&#xe605;" horiz-adv-x="1536" 
d="M743 891q242 -12 441 -175q23 -18 48 -41t42 -39t47 -46.5t40.5 -41t46 -48t41.5 -43.5q31 -34 31 -58.5t-29 -60.5q-118 -148 -246.5 -249.5t-283.5 -151.5q-258 -84 -528 77q-195 115 -362 328q-42 54 -6 99q122 157 255.5 263t295.5 155q24 7 51.5 12.5t62.5 10.5
t53 9v0zM498 399q-1 -106 70 -182t172 -78t174.5 74.5t73.5 183.5q0 105 -71.5 180.5t-172.5 76.5q-100 0 -172.5 -75t-73.5 -180v0zM745 506q43 -1 73.5 -34t29.5 -78.5t-33 -77t-75 -29.5t-72.5 34t-29.5 76q0 45 31.5 77.5t75.5 31.5v0z" />
    <glyph glyph-name="chenggong" unicode="&#xe607;" 
d="M510 896q-104 0 -198 -40.5t-162.5 -108.5t-109 -162.5t-40.5 -198.5t40.5 -198.5t109 -162.5t162.5 -108.5t198 -40.5t198.5 40.5t162.5 108.5t108.5 162.5t40.5 198.5t-40.5 198.5t-108.5 162.5t-162.5 108.5t-198.5 40.5v0zM411 125l-1 2l-1 -2l-240 241l80 80
l161 -161l361 362l81 -81l-441 -441v0z" />
    <glyph glyph-name="tupian" unicode="&#xe608;" horiz-adv-x="1261" 
d="M943 704q5 0 13.5 -0.5t30.5 -7t38.5 -18.5t30.5 -37.5t14 -60.5v-7.5t-1.5 -17t-5 -24t-12.5 -26t-22 -25t-35.5 -17.5t-50.5 -8q-5 0 -13.5 0.5t-30 7t-37.5 18t-29.5 37.5t-13.5 62q0 5 1 12t7.5 27.5t18 36.5t37 30.5t60.5 17.5v0zM1193 895q3 0 7.5 -0.5t16 -4.5
t20 -10.5t16 -19t7.5 -29.5v-879q0 -2 -1 -6.5t-5 -15.5t-10.5 -19t-20 -15.5t-30.5 -7.5v1007v0zM1 -48q0 -2 0.5 -6.5t4 -15.5t10 -19.5t19.5 -15.5t30 -7h1128v186h-123l-251 254l-188 -190l-257 317l-253 -378l-56 -2l-2 756h-62v-879v0zM1193 895h-1128q-3 1 -7 0.5
t-15.5 -4t-20 -9.5t-15 -19t-6.5 -32h1192v64v0z" />
    <glyph glyph-name="peizhi" unicode="&#xe609;" 
d="M983 268q3 -13 -1 -31q-3 -18 -10.5 -36.5t-17.5 -33t-23 -20.5q-13 -7 -22.5 -7t-21.5 4q-10 3 -26 6t-32 1q-16 -1 -32.5 -6.5t-28.5 -18.5q-25 -26 -29.5 -60t9.5 -64q11 -21 -3 -42q-6 -9 -20 -18t-30 -16t-35 -12q-18 -4 -31 -4q-10 0 -18 7q-8 8 -12 16h-1
q-12 33 -39.5 56.5t-64.5 23.5q-36 0 -65.5 -23.5t-40.5 -55.5q-5 -12 -15.5 -18t-23.5 -6q-15 0 -33 5q-19 6 -37.5 13.5t-33.5 18.5q-14 10 -22 21q-5 7 -5.5 17t7.5 28q12 25 9.5 56t-27.5 58q-14 15 -36 20q-20 5 -40 4q-22 -1 -45 -9q-15 -4 -30 2q-11 5 -21 20t-18 34
q-8 18 -12.5 37.5t-2.5 32.5q4 23 22 30q31 12 56.5 41t25.5 65q0 37 -25.5 64.5t-56.5 40.5q-10 3 -16 15t-6 25t4 30t11 33t16 29t19 20q9 5 17 4q7 -1 17 -4q32 -13 66 -8t61 30q12 12 18 31t8 36q1 18 0 33q-2 13 -3 21q-2 7 -3.5 15t1.5 15q6 15 22.5 26t35.5 18t37 11
t28 4q14 0 22 -9t11 -18q12 -29 38.5 -50.5t61.5 -21.5q37 0 65.5 20.5t40.5 52.5q4 8 13 17t19 9q15 0 32 -4t34 -11.5t31 -19.5q14 -11 23 -25q5 -9 3 -19t-4 -14q-14 -30 -8 -64q5 -34 30 -59q25 -26 62.5 -28.5t68.5 12.5q9 5 21 4t20 -10q16 -14 28 -44.5t17 -60.5
q2 -18 -6 -28t-17 -13q-32 -12 -55.5 -41t-23.5 -66q0 -36 20 -63q19 -27 51 -38q7 -4 13 -9q11 -9 15 -24v0v0zM493 173q47 0 89 18t73.5 49.5t49.5 73.5t18 89.5t-18 88.5q-18 42 -49 73q-32 31 -74 49t-89.5 18t-89 -18t-73 -49t-49.5 -72.5t-18 -89t18 -89.5t49 -74
q31 -31 73 -49t90 -18v0v0z" />
    <glyph glyph-name="beizhu" unicode="&#xe60a;" 
d="M186 -126l157 22l-61 423q76 85 152 88q11 0 55.5 1.5t60 2.5t53.5 4.5t58.5 10t52 16.5t57.5 25.5t52 36.5q25 25 50 63q60 88 102 223q-112 -33 -192 -46q-54 -9 -72 -11q-18 -1 -32.5 -1t-28 1.5t-23 4t-20.5 7.5t-18.5 9.5t-18.5 12.5t-18 14t-20.5 17.5t-22.5 18.5
q-40 33 -115 56q-152 45 -351 2l143 -1001v0z" />
    <glyph glyph-name="fanhui" unicode="&#xe60c;" horiz-adv-x="1366" 
d="M451 871l-426 -426q-25 -25 -25 -60t25 -60l426 -426q25 -25 60 -25t60 25t25 60t-25 60l-280 281h987q35 0 60 25t25 60t-25 60t-60 25h-987l280 281q25 25 25 60t-25 60t-60 25t-60 -25v0z" />
    <glyph glyph-name="fenxiang" unicode="&#xe60d;" 
d="M819 237q-45 0 -83 -23.5t-59 -62.5l-361 183q14 32 14 66q0 35 -16 69l377 155q49 -63 128 -63q67 0 114.5 47.5t47.5 115t-47.5 115t-115 47.5t-115 -47.5t-47.5 -114.5q0 -9 2 -25l-399 -165q-42 28 -91 28q-68 0 -115.5 -47.5t-47.5 -115t47.5 -115t115.5 -47.5
q52 0 96 32l393 -200q2 -65 49 -111.5t113 -46.5q68 0 115.5 48t47.5 115t-47.5 115t-115.5 48v0z" />
    <glyph glyph-name="fangda" unicode="&#xe60e;" horiz-adv-x="1025" 
d="M421 375l10 -10q5 -4 9 -8l8 -8l12 -12q21 -21 17 -36.5t-26 -35.5q-9 -11 -30.5 -32t-45.5 -45.5t-46.5 -47.5t-35.5 -36q-18 -19 -25.5 -33t6.5 -27q9 -9 23.5 -24.5t24.5 -26.5q18 -17 13 -30.5t-30 -15.5q-27 -3 -60 -7.5t-68.5 -8t-69 -7.5t-60.5 -7t-37.5 6.5
t-8.5 34.5q2 26 5.5 58t8 65.5t8 66.5t6.5 61q3 30 17 38t32 -9q10 -10 26.5 -25t28 -26.5t21.5 -7.5t24 17q13 13 36 36.5t48.5 49t49.5 50t38 38.5q6 6 14 12t17 8t19 -1.5t21 -13.5v0zM943 895q27 3 37.5 -6.5t8.5 -34.5q-2 -26 -6 -58t-8 -65.5t-7.5 -67t-6.5 -61.5
q-3 -30 -17 -37.5t-32 9.5q-10 11 -28 27.5t-29.5 27.5t-19.5 9.5t-21 -13.5q-14 -15 -37.5 -38.5t-49 -50t-50.5 -50.5l-38 -39q-6 -6 -13.5 -12t-16 -9t-18.5 -1t-20 13l-39 39q-21 21 -18.5 38t23.5 38q9 9 30.5 31t46.5 47t48 48.5t37 36.5q18 18 23 30t-9 25
q-9 10 -22 23.5t-23 23.5q-18 17 -13 30.5t30.5 16.5t59 7.5t68.5 8t68.5 7.5t61.5 7v0z" />
    <glyph glyph-name="suoxiao" unicode="&#xe60f;" horiz-adv-x="1097" 
d="M441 357q26 3 36.5 -7.5t8.5 -35.5q-2 -26 -6 -59t-8.5 -67t-8 -67.5t-6.5 -62.5q-3 -31 -17.5 -39t-31.5 10q-11 11 -27 26t-28 26q-12 12 -23 8.5t-24 -17.5l-38 -38t-49.5 -50t-49.5 -50.5t-39 -39.5q-6 -6 -14 -12t-17 -8.5t-19.5 0.5t-21.5 15q-7 6 -11 10l-8 8
l-9 9l-12 12q-22 21 -17.5 36.5t25.5 37.5q10 10 32 31.5t46.5 46.5t47.5 48.5t37 37.5q19 19 25.5 33t-6.5 27q-10 10 -24.5 25.5t-24.5 26.5q-17 17 -13 31t31 17t60.5 7.5t69 8t70.5 8t64 7.5v0zM1014 842q21 -21 18.5 -37.5t-24.5 -39.5q-11 -10 -32.5 -32t-47 -47.5
t-49 -49.5t-37.5 -38q-19 -19 -23 -30.5t9 -25.5q10 -9 23 -23t23 -25q17 -17 12.5 -31t-30.5 -17q-27 -3 -60.5 -7t-69.5 -8t-71 -8.5t-63 -6.5q-50 -6 -46 42q3 26 6.5 58.5t8 67t8 68.5t6.5 62q3 31 17.5 39.5t32.5 -10.5l12.5 -12.5t16 -15t16 -15t13.5 -12.5
q12 -13 20 -11.5t21 14.5q15 15 39 39.5t50.5 51t51 51.5t39.5 40q6 6 13.5 12t16 9t18.5 1t21 -13q7 -7 11.5 -11t7.5 -7l9 -9z" />
    <glyph glyph-name="xiangmuxiaoxi" unicode="&#xe610;" horiz-adv-x="1152" 
d="M551 836l-4 3q6 -9 7 -7.5t-3 4.5v0zM31 314l464 -209q31 -14 50.5 -14t52.5 14l464 209q16 7 24 34.5t8 53.5l-73 -37l-474 -218l-474 218l-70 35q-2 1 -3 2q0 -26 7.5 -53t23.5 -35v0zM547 -72l-474 219l-72 35l-1 1q0 -26 7.5 -52.5t23.5 -35.5l464 -208
q31 -15 50.5 -15t52.5 15l464 208q16 7 24 35t8 53q-11 -5 -31 -15l-31 -15.5l-11 -5.5l-474 -219v0zM31 532l464 -208q31 -15 50.5 -15t52.5 15l464 208q26 12 26.5 50.5t-26.5 52.5l-464 245q-27 16 -49 16t-54 -16l-464 -245q-26 -17 -26.5 -52.5t26.5 -50.5v0zM547 839
l1 -1l473 -254l-474 -200l-474 200l474 255v0z" />
    <glyph glyph-name="shape" unicode="&#xe611;" horiz-adv-x="1182" 
d="M1176 -88h-1153h-23v21v963h46v-943h1130v-41zM87 86l129 250l18 36l32 -25l201 -152l274 525l39 76l23 -82l98 -348l169 70l26 -62l-204 -85l-36 -14l-10 36l-85 302l-253 -485l-18 -35l-32 24l-201 152l-110 -214z" />
    <glyph glyph-name="arrowleft" unicode="&#xe612;" horiz-adv-x="1298" 
d="M1294 405q0 -28 -20 -47.5t-48 -19.5h-994l309 -305q20 -19 20 -47t-20 -47.5t-48.5 -19.5t-47.5 20l-425 419q-20 19 -20 47t20 47l425 419q19 20 47.5 20t48.5 -19.5t20 -47.5t-20 -47l-309 -305h994q28 0 48 -19.5t20 -47.5v0z" />
    <glyph glyph-name="baocun" unicode="&#xe613;" 
d="M297 122h117v-190h-117v190zM941 896h-918q-9 0 -15.5 -6.5t-6.5 -15.5v-795l147 -145h67v0v33v247h443v-280h-1v0h284q9 0 15.5 6.5t6.5 15.5v918q0 9 -6.5 15.5t-15.5 6.5v0zM809 412h-655v431h655v-431v0zM297 -66h117v-6h-117v6z" />
    <glyph glyph-name="chakan" unicode="&#xe614;" 
d="M983 -73l-38 -38q-11 -11 -27 -11t-27 11l-154 153q-58 -34 -125 -34q-102 0 -178 74t-79 174h-193v64h200q7 32 25 64h-225v63h276q-1 0 -1 -0.5t-1 -0.5q72 65 168 65q103 0 180 -76.5t77 -178.5q0 -70 -36 -129l152 -151q28 -27 6 -49v0zM604 435q-71 0 -122 -50.5
t-51 -121.5t54.5 -125t126 -54t122 50.5t50.5 121.5t-54 125t-126 54v0zM162 702h450v-64h-450v64v0zM612 560q-60 -17 -106 -49h-344v64h450v-15v0zM676 572v194h-579v-637h273q20 -71 68 -127h-341q-26 0 -45 18.5t-19 44.5v764q0 27 19 45.5t45 18.5h579q27 0 46 -18.5
t19 -45.5v-257q-3 0 -14.5 1.5t-18 1.5t-18 -1.5t-14.5 -1.5v0z" />
    <glyph glyph-name="guanbi" unicode="&#xe615;" 
d="M1023 768l-128 128l-384 -383l-383 383l-128 -128l383 -383l-383 -384l128 -128l383 384l384 -384l128 128l-384 384z" />
    <glyph glyph-name="wenzi" unicode="&#xe616;" 
d="M32 896h941v-317h-42q-3 8 -9 21t-24.5 47.5t-38 61.5t-47.5 51.5t-54 29.5q-42 7 -81.5 8.5t-58.5 -1.5l-19 -2l-1 -807q1 -3 3 -6.5t9 -13t14.5 -17t19 -14.5t23.5 -8h95v-56h-519l1 57l83 2q3 1 7 2.5t15 7t19 12.5t15 18.5t7 24.5q0 45 1 791v0q-4 1 -11.5 2t-28 2.5
t-39 2t-40.5 -0.5t-37 -4q-48 -12 -100 -69.5t-61 -135.5l-42 -2v313v0v0z" />
    <glyph glyph-name="zhixingdiaodu" unicode="&#xe617;" 
d="M853 892h-682q-26 0 -43.5 -18.5t-17.5 -44.5v-843q0 -26 17.5 -44.5t43.5 -18.5h437q-24 32 -38 71h-372q-12 0 -21 9t-9 21v766q0 13 9 22t21 9h627q13 0 21.5 -9t8.5 -22v-434q31 -5 59 -16v489q0 26 -18 44.5t-43 18.5v0zM783 546v40q0 6 -3.5 9.5t-8.5 3.5h-516
q-6 0 -9.5 -3.5t-3.5 -9.5v-40q0 -5 3.5 -9t9.5 -4h516q5 0 8.5 4t3.5 9v0zM255 673h516q5 0 8.5 4t3.5 10v39q0 6 -3.5 10t-8.5 4h-516q-6 0 -9.5 -4t-3.5 -10v-39q0 -6 3.5 -10t9.5 -4v0zM568 446q0 6 -3.5 9.5t-8.5 3.5h-301q-6 0 -9.5 -3.5t-3.5 -9.5v-40q0 -5 3.5 -9
t9.5 -4h301q5 0 8.5 4t3.5 9v40v0zM556 319h-301q-6 0 -9.5 -3.5t-3.5 -9.5v-40q0 -5 3.5 -9t9.5 -4h301q5 0 8.5 4t3.5 9v40q0 6 -3.5 9.5t-8.5 3.5v0zM828 407l-224 -301h114l-28 -230l224 301h-114z" />
    <glyph glyph-name="kuoda" unicode="&#xe618;" horiz-adv-x="1076" 
d="M990 298q-20 0 -33.5 -14t-13.5 -34v-216l-290 289q-14 14 -33.5 14t-33 -14t-13.5 -33.5t13 -33.5l290 -289h-217q-20 0 -33.5 -14t-13.5 -33.5t13.5 -33.5t33.5 -14h331q20 0 33.5 14t13.5 34v330q0 20 -13.5 34t-33.5 14v0zM172 803h214q19 0 32.5 13.5t13.5 33
t-13.5 33t-32.5 13.5h-326q-19 0 -33 -13.5t-14 -33.5v-325q0 -20 14 -33.5t33 -13.5t33 13.5t14 33.5v213l284 -285q14 -13 33.5 -13t33 13.5t13.5 32.5t-14 33l-285 285v0z" />
    <glyph glyph-name="set" unicode="&#xe619;" 
d="M937 274h87v220h-87q-66 0 -80 33t33 80l62 61l-156 156l-61 -62q-47 -47 -80 -33t-33 80v0v1v86h-220v-87q0 -66 -33 -80t-80 33l-61 62l-156 -156l62 -61q47 -47 33 -80t-80 -33h-87v-220h87q66 0 80 -33t-33 -80l-62 -61l156 -156l61 62q47 47 80 33t33 -80v-87h220
v86v1v0q0 66 33 80t80 -33l61 -62l156 156l-62 61q-47 47 -33 80t80 33v0zM512 192q-80 0 -136 56t-56 136t56 136t136 56t136 -56t56 -136q0 -79 -56 -135.5t-136 -56.5v0z" />
    <glyph glyph-name="check" unicode="&#xe61a;" horiz-adv-x="1205" 
d="M469 12l-86 -85l-383 383l170 170l213 -213l597 597l170 -171z" />
    <glyph glyph-name="arrow" unicode="&#xe61b;" horiz-adv-x="2560" 
d="M0 896h301l885 -763l885 763h302l-1187 -1022z" />
    <glyph glyph-name="tree" unicode="&#xe61c;" horiz-adv-x="1122" 
d="M488 457h634v-195h-634v-195h634v-195h-659h-73v829h98v-244zM0 896h683v-195h-683v195z" />
    <glyph glyph-name="materialpencil" unicode="&#xe61d;" 
d="M1006 666q17 17 17 41t-17 39l-133 133q-16 17 -39.5 17t-40.5 -17l-104 -104l213 -213zM0 86v-213h213l628 629l-213 213l-628 -629v0z" />
    <glyph glyph-name="play" unicode="&#xe61e;" 
d="M73 896l838 -512l-838 -512v1024z" />
    <glyph glyph-name="xinxi" unicode="&#xe61f;" horiz-adv-x="1076" 
d="M599 434q0 2 -3 2v0q0 2 -4 7v0q-2 2 -3 4l-2 4l-3 2q-3 2 -5 5q-1 0 -2 1t-2 1l-3 3q-1 0 -3.5 1t-3.5 1h-2h-3h-5v0q-17 0 -24 -2l-39 -8q-19 -5 -29 -22t-5 -36q8 -24 27 -31l-51 -187q-6 -18 8 -41l2 -2l2 -3q22 -21 49 -14l46 12q20 5 29.5 22.5t4.5 35.5
q-9 25 -29 32l48 184q9 12 5 29v0zM662 874q-134 36 -264.5 1t-226.5 -130.5t-131.5 -228.5t-0.5 -264t130.5 -226.5t228.5 -131.5q107 -27 207.5 -11.5t187.5 69.5v0q24 12 24 41q0 20 -14.5 34t-34.5 14q-16 0 -29 -9q-70 -43 -151 -54.5t-166 10.5q-108 29 -185 106.5
t-105.5 183t0.5 214.5q28 108 105.5 185t183.5 105.5t214 -0.5q108 -28 185.5 -105.5t105.5 -183.5t0 -214q-12 -47 -46 -107v0q-8 -11 -8 -26q0 -20 14.5 -34.5t34.5 -14.5q29 0 41 24v0q38 66 56 131q21 83 18.5 162t-32.5 153t-77.5 135t-116 106t-148.5 66v0zM625 579
q6 24 -5.5 44.5t-35.5 25.5q-24 6 -44 -6t-26 -35q-5 -24 6.5 -44.5t35 -26t44 7t25.5 34.5v0z" />
    <glyph glyph-name="search" unicode="&#xe620;" 
d="M1005 -18l-308 308q71 99 71 222q0 104 -51.5 192.5t-140 140t-192.5 51.5t-192.5 -51.5t-140 -140t-51.5 -192.5t51.5 -192.5t140 -140t192.5 -51.5q122 0 223 71l308 -308q19 -19 45.5 -19t45 19t18.5 45.5t-19 45.5v0zM96 512q0 120 84 204t203.5 84t204 -84
t84.5 -203.5t-84.5 -204t-204 -84.5t-203.5 84.5t-84 203.5v0z" />
    <glyph glyph-name="banjichengyuan" unicode="&#xe621;" horiz-adv-x="1677" 
d="M1677 -114h-309q-15 102 -64 191t-127 151q-20 39 -20 77q0 83 60 141.5t144 58.5t144 -58.5t60 -141.5q0 -53 -27 -98t-72 -70q84 -28 140 -96t71 -155v0zM507 305q0 -26 -13 -64q-85 -64 -140.5 -157t-70.5 -198h-282q10 86 67 153t137 92q-45 24 -72 69.5t-27 98.5
q0 82 60 141t144 59t140.5 -55.5t56.5 -138.5v0zM1335 -114h-1012q19 138 112.5 247.5t229.5 158.5q-76 45 -120.5 118.5t-44.5 159.5q0 136 95.5 229.5t233.5 93.5t233 -93.5t95 -229.5q0 -87 -45 -163t-119 -115q138 -48 230 -157t112 -249v0z" />
    <glyph glyph-name="folder" unicode="&#xe622;" horiz-adv-x="1171" 
d="M1024 -113h-856q-48 0 -78.5 34t-30.5 84v753q0 50 30.5 84.5t78.5 34.5h316q12 0 21.5 -7t11.5 -19l35 -144h472q50 0 89 -36t39 -84v-582q0 -48 -39 -83t-89 -35v0zM168 809q-19 0 -29.5 -14.5t-10.5 -36.5v-753q0 -22 10 -35.5t30 -13.5h856q22 0 40.5 14.5t18.5 34.5
v582q0 20 -19 35.5t-40 15.5h-499q-11 0 -20.5 7.5t-12.5 18.5l-35 145h-289zM960 7h-176q-7 0 -12 5t-5 12t5 12t12 5h176q11 0 18 1.5t13.5 11t6.5 26.5v62q0 7 5 12t12 5t12 -5t5 -12v-62q0 -36 -20 -54.5t-52 -18.5zM1007 204q-7 0 -12 5t-5 12t5 12t12 5t12 -5t5 -12
t-5 -12t-12 -5zM1057 775h-427q-14 0 -24 10t-10 24t10 24t24 10h427q14 0 24 -10t10 -24t-10 -24t-24 -10z" />
    <glyph glyph-name="quanxiandaili13" unicode="&#xe623;" 
d="M874.5 350q-67.5 -68 -163.5 -78.5t-176 38.5l-50 -50l-29 -30l-24 -24l-49 -49l50 -50l49 -49q10 -10 24.5 -10t24.5 10t10 24.5t-10 24.5l-49 49l69 69q93 -38 195.5 -18t176.5 94q89 88 100 212.5t-58 225.5l-50 -50q49 -80 38 -175.5t-78.5 -163.5zM484 -41v0
l-100 99l-50 51l-48 -49l50 -50l99 -99v0q10 -10 24.5 -10t24.5 9.5t9.5 24t-9.5 24.5zM602.5 623.5q-30.5 -30.5 -30 -73.5t31.5 -74t74 -31.5t73.5 30t30 73.5t-31.5 74t-74 31.5t-73.5 -30zM701.5 573.5q10.5 -10.5 10.5 -24.5t-10.5 -24.5t-24.5 -10.5t-24 10.5
t-10.5 24.5t10 24.5t24.5 10.5t24.5 -10.5zM188 -38q-20 -20 -48.5 -20t-49 20.5t-20.5 49t20 48.5l269 268l29 29l50 50q-49 80 -38.5 176t78.5 163.5t163.5 78.5t175.5 -38l50 50q-101 69 -225 58t-213 -100q-74 -74 -94 -176.5t18 -195.5l-313 -313q-40 -40 -40 -97.5
t41.5 -99t99 -41.5t97.5 40l49 49l-50 50l-49 -49v0z" />
    <glyph glyph-name="navdatasource" unicode="&#xe624;" 
d="M492 -128q-115 0 -211.5 25.5t-152 68t-55.5 92.5v652q0 50 55.5 92.5t152 68t211.5 25.5t212 -25.5t152 -68t55 -92.5v-652q0 -50 -55 -92.5t-152 -68t-212 -25.5v0zM492 849q-80 0 -151.5 -13t-118.5 -33.5t-74.5 -45t-27.5 -47.5v-652q0 -23 27.5 -47.5t74.5 -45
t118.5 -33.5t151.5 -13t151.5 13t119 33.5t74.5 45t27 47.5v652q0 23 -27 47.5t-74.5 45t-119 33.5t-151.5 13v0zM492 58q-117 0 -212 28.5t-151 82t-56 122.5v0q12 0 23.5 -2.5t16 -2.5t7.5 5q-5 -79 100 -133.5t272 -52.5q167 -2 272.5 52.5t99.5 133.5q3 -5 7.5 -5
t16 2.5t23.5 2.5v0q0 -69 -55.5 -122.5t-151 -82t-212.5 -28.5v0zM73 524q12 0 23.5 -2.5t16 -2.5t7.5 5q-5 -79 100 -133.5t272 -53.5q167 -1 272.5 53.5t99.5 133.5q3 -5 7.5 -5t16 2.5t23.5 2.5q0 -69 -55.5 -122.5t-151 -82t-212.5 -28.5t-212 28.5t-151 82t-56 122.5z
M492 524q-117 0 -212 28.5t-151 82t-56 121.5v0q12 0 23.5 -2t16 -2t7.5 4q-5 -78 100 -132.5t272 -53.5q167 -1 272.5 53.5t99.5 132.5q3 -4 7.5 -4t16 2t23.5 2v0q0 -68 -55.5 -121.5t-151 -82t-212.5 -28.5z" />
    <glyph glyph-name="baogao" unicode="&#xe625;" 
d="M372 628h276q36 0 61 25t25 60v5q0 4 -1 9q-3 29 -23.5 50.5t-49.5 24.5q-7 1 -12 1h-37v7q0 36 -25 61t-60 25h-32q-35 0 -60 -25t-25 -61v-7h-37q-5 0 -11 -1q-30 -3 -50.5 -24.5t-23.5 -50.5v-9v-5q0 -35 25 -60t60 -25v0zM874 825h-126v-45h126q6 0 11 -4.5t5 -11.5
v-831q0 -6 -5 -11t-11 -5h-728q-6 0 -10.5 5t-4.5 11v832q0 6 4.5 10.5t10.5 4.5h126v45h-126q-25 0 -42.5 -17.5t-17.5 -42.5v-832q0 -25 17.5 -42.5t42.5 -17.5h728q25 0 43 17.5t18 42.5v832q0 25 -18 42.5t-43 17.5v0zM305 437h410q19 0 32.5 13.5t13.5 32.5t-13.5 32
t-32.5 13h-410q-19 0 -32.5 -13t-13.5 -32t13.5 -32.5t32.5 -13.5v0zM715 338h-410q-19 0 -32.5 -13.5t-13.5 -32.5t13.5 -32t32.5 -13h410q19 0 32.5 13t13.5 32t-13.5 32.5t-32.5 13.5v0zM715 148h-410q-19 0 -32.5 -13.5t-13.5 -32.5t13.5 -32.5t32.5 -13.5h410
q19 0 32.5 13.5t13.5 32.5t-13.5 32.5t-32.5 13.5v0z" />
    <glyph glyph-name="zuoye" unicode="&#xe626;" horiz-adv-x="1078" 
d="M340 679h497v-56h-497v56v0v0v0zM340 458h497v-56h-497v56v0v0v0zM340 238h241v-56h-241v56v0v0v0zM142 693h87v-84h-87v84v0v0v0zM142 473h87v-85h-87v85v0v0v0zM142 252h87v-84h-87v84v0v0v0zM508 -23h-432q-18 0 -18 25v810q0 25 18 25h839q19 0 19 -25v-468v0v-1
q0 -11 8 -19t20 -8t20 8t8 19v1v0v521q0 11 -8.5 19.5t-20.5 8.5h-931q-12 0 -20.5 -8.5t-8.5 -19.5v-915q0 -12 8.5 -20t20.5 -8h478q12 0 20.5 8t8.5 19.5t-8.5 19.5t-20.5 8v0v0v0zM1031 184q9 8 9 19q0 12 -8.5 20t-20.5 8t-21 -8v0v0v0l-209 -202l-84 81q-8 8 -20 8
t-20.5 -8t-8.5 -20t8 -20v0l84 -81v0l41 -40v0h1l41 40h-1l209 203v0v0v0z" />
    <glyph glyph-name="xitongpeizhi" unicode="&#xe627;" 
d="M993 492h-95q-13 47 -37 89l67 67q9 9 9 22t-9 22l-108 108q-9 9 -22 9t-22 -9l-67 -67q-42 24 -89 37v95q0 13 -9 22t-22 9h-153q-13 0 -22.5 -9t-9.5 -22v-95q-47 -13 -88 -37l-67 67q-10 9 -23 9t-22 -9l-108 -108q-9 -9 -9 -22t9 -22l67 -67q-24 -42 -37 -89h-95
q-13 0 -22 -9.5t-9 -22.5v-152q0 -13 9 -22.5t22 -9.5h95q13 -47 37 -89l-67 -67q-9 -9 -9 -22t9 -22l108 -108q9 -9 22 -9t22 9l67 67q42 -24 89 -37v-94q0 -13 9 -22.5t22 -9.5h153q13 0 22.5 9.5t9.5 22.5v94q47 13 88 37l67 -67q10 -9 22.5 -9t22.5 9l108 108q9 9 9 22
t-9 22l-67 67q24 42 37 89h94q13 0 22.5 9.5t9.5 22.5v152q0 13 -9 22.5t-22 9.5v0zM960 340h-62h-49l-13 -47q-11 -39 -31 -74l-23 -43l34 -34l44 -44l-62 -62l-44 44l-35 34l-42 -24q-35 -19 -74 -30l-47 -13v-49v-62h-88v62v49l-47 13q-39 11 -74 31l-43 23l-34 -34
l-44 -44l-62 62l44 44l34 35l-24 42q-19 35 -30 74l-13 47h-49h-62v88h62h49l13 47q11 39 31 74l23 43l-34 34l-44 44l62 62l44 -44l35 -34l42 24q35 19 74 30l47 13v49v62h88v-62v-49l47 -13q39 -11 74 -31l43 -23l34 34l44 44l62 -62l-44 -44l-34 -35l24 -42
q19 -35 30 -74l13 -47h49h62v-88v0zM512 576q-80 0 -136 -56t-56 -136t56 -136t136 -56t136 56t56 136t-56 136t-136 56v0zM512 256q-53 0 -90.5 37.5t-37.5 90.5t37.5 90.5t90.5 37.5t90.5 -37.5t37.5 -90.5t-37.5 -90.5t-90.5 -37.5z" />
    <glyph glyph-name="jinxingzhong" unicode="&#xe628;" 
d="M512 887q-103 0 -197 -40t-162 -108t-108.5 -162t-40.5 -197.5t40.5 -197.5t108.5 -162t162 -108t197 -40t197 40t162 108t108.5 162t40.5 197.5t-40.5 197.5t-108.5 162t-162 108t-197 40v0zM689 175l-15 -15q-9 -9 -22.5 -9t-22.5 9l-156 156q-10 3 -16.5 11.5
t-6.5 19.5v317q0 13 9 22.5t22 9.5h22q13 0 22 -9.5t9 -22.5v-289l155 -155q9 -9 9 -22t-9 -23v0z" />
    <glyph glyph-name="chart" unicode="&#xe629;" horiz-adv-x="1229" 
d="M66 890q0 2 2 4t4 2h39q3 0 4.5 -2t1.5 -4v-966h1035q3 0 4.5 -2t1.5 -4v-40q0 -2 -1.5 -4t-4.5 -2h-1086v1018v0zM544 878q0 7 3.5 12.5t8.5 5.5h112q5 0 8.5 -5.5t3.5 -12.5v-869h-136v869v0zM271 605q0 7 3.5 12.5t8.5 5.5h112q5 0 8.5 -5.5t3.5 -12.5v-596h-136v596
v0zM820.5 345q3.5 5 8.5 5h112q5 0 8.5 -5t3.5 -12v-324h-136v324q0 7 3.5 12zM1090 124q0 9 3.5 15t8.5 6h112q5 0 8.5 -6t3.5 -15v-115h-136v115v0z" />
    <glyph glyph-name="sanjiao" unicode="&#xe62a;" horiz-adv-x="1707" 
d="M123 894l729 2l733 -6q80 0 97 -13q23 -18 22 -48.5t-22 -52.5l-776 -849q-22 -22 -54 -21q-32 -1 -54 21l-776 849q-21 22 -22 52t22 49q21 17 101 17v0z" />
    <glyph glyph-name="xinjian" unicode="&#xe62b;" horiz-adv-x="1110" 
d="M582 320v-448h-129v448h-453v128h453v448h129v-448h453v-128h-453z" />
    <glyph glyph-name="shibai" unicode="&#xe62c;" 
d="M512 896q-212 0 -362 -150t-150 -362t150 -362t362 -150t362 150t150 362t-150 362t-362 150v0zM695 121l-186 176l-174 -186l-93 87l174 186l-163 155l87 92l163 -155l156 164l92 -87l-154 -164l185 -176l-87 -92v0z" />
    <glyph glyph-name="materialdelete" unicode="&#xe62d;" 
d="M906 839h-199l-57 57h-284l-57 -57h-199v-114h796v114zM167 -14q0 -47 33 -80.5t80 -33.5h455q47 0 80.5 33.5t33.5 80.5v682h-682v-682v0z" />
    <glyph glyph-name="diamond" unicode="&#xe62e;" horiz-adv-x="1280" 
d="M1210 563l-192 256q-8 10 -21 13l-384 64h-10l-384 -64q-13 -3 -21 -13l-192 -256q-6 -9 -5.5 -20.5t7.5 -19.5l576 -640q10 -11 24 -11t24 11l576 640q8 8 8.5 19.5t-6.5 20.5v0zM818 576l-210 -578l-210 578h420v0zM429 640l179 179l179 -179h-358v0zM701 816l237 -39
l-79 -119l-158 158v0zM357 658l-79 119l237 39l-158 -158v0zM299 630l-191 -38l114 153l77 -115v0zM331 571l191 -523l-429 476l238 47v0zM885 571l238 -47l-429 -476l191 523v0zM917 630l77 115l114 -153l-191 38v0z" />
    <glyph glyph-name="users" unicode="&#xe62f;" horiz-adv-x="1344" 
d="M754 403q70 28 114 92t44 140q0 110 -77 185.5t-183.5 75.5t-183.5 -75.5t-77 -185.5q0 -76 44 -140t114 -92q-155 -36 -254.5 -157.5t-99.5 -280.5v-74q0 -7 6 -13t13 -6h884q7 0 13 6t6 13v74q-7 160 -108 281.5t-255 156.5v0zM456 635q0 83 58.5 139.5t137 56.5
t137 -56.5t58.5 -139.5t-56 -139t-139 -56t-139.5 58.5t-56.5 136.5v0zM1043 -63h-782v28q0 105 52.5 195.5t142.5 143t195.5 52.5t195.5 -52.5t143 -143t53 -195.5v-28v0zM261 356q38 4 54 23.5t9 39.5t-26 30q-93 47 -93 140q0 56 36 97.5t85 41.5q17 9 20.5 25t-4 28.5
t-16.5 12.5q-75 0 -126 -58.5t-51 -137.5q0 -55 25.5 -100.5t67.5 -66.5q-106 -29 -174 -119t-68 -207q0 -65 9 -93q15 -20 36.5 -12t28.5 30q-9 28 -9 75q0 103 59 177t137 74v0zM1071 412q42 28 67.5 73.5t25.5 93.5q0 83 -53 139.5t-124 56.5q-10 0 -17 -12t-3.5 -28.5
t20.5 -24.5q49 0 85 -42t36 -98q0 -93 -93 -139q-18 -7 -27.5 -21t-8.5 -28t17.5 -24.5t46.5 -10.5q82 0 143 -76.5t61 -175.5q0 -55 -9 -74q8 -22 29.5 -30t35.5 11q10 28 10 93q-7 125 -75.5 214t-166.5 103v0z" />
    <glyph glyph-name="fabu2" unicode="&#xe630;" 
d="M1004 896v-921l-405 232l-264 -335v355h-335l1004 669v0v0v0zM975 852l-573 -607v-193l573 800v0z" />
    <glyph glyph-name="tianjiayonghu" unicode="&#xe631;" horiz-adv-x="1304" 
d="M828 423q98 0 167 69.5t69 167t-69 167t-167 69.5t-167.5 -69.5t-69.5 -167t69.5 -167t167.5 -69.5v0zM296 541v178h-119v-178h-177v-118h177v-177h119v177h177v118h-177v0zM828 305q-49 0 -109.5 -9.5t-125 -29t-117.5 -46.5t-87 -67t-34 -85v-118h946v118q0 45 -34 85
t-87 67t-117.5 46.5t-125 29t-109.5 9.5v0z" />
    <glyph glyph-name="shaixuan" unicode="&#xe632;" horiz-adv-x="1025" 
d="M938 896h-852q-36 0 -61 -25t-25 -61q0 -34 25 -59q0 -2 2 -3l299 -299v-156v0v-27v0v0q0 -15 10.5 -25t25 -10t25 10t10.5 25v0v0v2v0v206q0 4 -3 7l-316 316l-2 2q-5 5 -5 11q0 7 4.5 11t10.5 4h852q6 0 10.5 -4t4.5 -11q0 -6 -5 -11l-2 -2l-316 -316q-3 -3 -3 -7v-17
v-46.5v-68v-86v-95.5v-102v-101q0 -7 -4.5 -11t-10.5 -4q-7 0 -11 5q-1 1 -3 2l-81 80q-8 8 -15 0l-35 -35q-3 -3 -3 -7.5t3 -7.5l83 -82l2 -2q25 -24 60 -24t60.5 25t25.5 61v491l299 299q2 1 2 3q25 25 25 59q0 36 -25 61t-61 25v0zM362 179q-17 0 -29 -12t-12 -28.5
t12 -28.5t28.5 -12t28.5 12t12 28.5t-12 28.5t-28 12v0z" />
    <glyph glyph-name="newdocumentdashboard" unicode="&#xe633;" horiz-adv-x="1143" 
d="M905 738h-118q-16 0 -27.5 -11.5t-11.5 -27.5t11.5 -27.5t27.5 -11.5h118v-119q0 -16 11.5 -27.5t28 -11.5t28 11.5t11.5 27.5v119h118q16 0 28 11.5t12 27.5t-11.5 27.5t-28.5 11.5h-118v119q0 16 -11.5 27.5t-28 11.5t-28 -11.5t-11.5 -27.5v-119zM787 817h-709
q-16 0 -27.5 -11.5t-11.5 -27.5v-867q0 -16 11.5 -27.5t27.5 -11.5h867q16 0 27.5 11.5t11.5 27.5v709v-157h-79v-512h-787v787h512v79h157zM196 620h158v-630h-158v630zM433 384h157v-394h-157v394zM669 384h158v-394h-158v394z" />
    <glyph glyph-name="host" unicode="&#xe634;" 
d="M914 603h-804q-46 0 -78 32.5t-32 77.5v73q0 46 32 78t78 32h804q46 0 78 -32t32 -78v-73q0 -45 -32 -77.5t-78 -32.5v0zM110 823q-15 0 -26 -11t-11 -26v-73q0 -15 11 -25.5t26 -10.5h804q15 0 26 10.5t11 25.5v73q0 15 -11 26t-26 11h-804v0zM183 786q-15 0 -26 -10.5
t-11 -25.5t11 -26t26 -11t25.5 11t10.5 26t-10.5 25.5t-25.5 10.5v0zM329 786q-15 0 -25.5 -10.5t-10.5 -25.5t10.5 -26t25.5 -11t26 11t11 26t-11 25.5t-26 10.5v0zM878 750q0 15 -11 25.5t-26 10.5h-146q-15 0 -26 -10.5t-11 -25.5v0q0 -15 11 -26t26 -11h146q15 0 26 11
t11 26v0v0zM914 238h-804q-46 0 -78 32t-32 77v74q0 45 32 77t78 32h804q46 0 78 -32t32 -77v-74q0 -45 -32 -77t-78 -32v0zM110 457q-15 0 -26 -10.5t-11 -25.5v-74q0 -15 11 -25.5t26 -10.5h804q15 0 26 10.5t11 25.5v74q0 15 -11 25.5t-26 10.5h-804v0zM183 421
q-15 0 -26 -11t-11 -26t11 -26t26 -11t25.5 11t10.5 26t-10.5 26t-25.5 11v0zM329 421q-15 0 -25.5 -11t-10.5 -26t10.5 -26t25.5 -11t26 11t11 26t-11 26t-26 11v0zM878 384q0 15 -11 26t-26 11h-146q-15 0 -26 -11t-11 -26v0q0 -15 11 -26t26 -11h146q15 0 26 11t11 26v0
v0zM914 -128h-804q-46 0 -78 32t-32 78v73q0 45 32 77.5t78 32.5h804q46 0 78 -32.5t32 -77.5v-73q0 -46 -32 -78t-78 -32v0zM110 91q-15 0 -26 -10.5t-11 -25.5v-73q0 -15 11 -26t26 -11h804q15 0 26 11t11 26v73q0 15 -11 25.5t-26 10.5h-804v0zM183 55q-15 0 -26 -11
t-11 -26t11 -25.5t26 -10.5t25.5 10.5t10.5 25.5t-10.5 26t-25.5 11v0zM329 55q-15 0 -25.5 -11t-10.5 -26t10.5 -25.5t25.5 -10.5t26 10.5t11 25.5t-11 26t-26 11v0zM878 18q0 15 -11 26t-26 11h-146q-15 0 -26 -11t-11 -26v0q0 -15 11 -25.5t26 -10.5h146q15 0 26 10.5
t11 25.5v0v0z" />
    <glyph glyph-name="jiaoseshezhi" unicode="&#xe635;" horiz-adv-x="1085" 
d="M698 360q-26 10 -56 18q54 28 91 75q58 74 58 167q0 113 -81.5 193.5t-196.5 80.5t-196.5 -80.5t-81.5 -193.5q0 -93 57 -167q37 -47 91 -75q-55 -14 -105 -40q-74 -38 -132.5 -97.5t-94.5 -134.5q-37 -77 -46 -161l-1 -8l6 -6q16 -15 32 -29l26 -23l1 6v5q0 89 35 170
t94.5 139.5t142 93.5t172.5 35q62 0 121 -17q29 29 64 49v0zM364 474q-61 60 -61 146t61.5 146.5t148.5 60.5t148.5 -60.5t61.5 -146.5t-61.5 -146.5t-148.5 -60.5t-149 61v0zM1054 85v32q0 12 7 21.5t19 12.5q-9 40 -32 75q-23 -13 -42 5l-23 23q-19 19 -6 42
q-35 22 -76 31q-3 -11 -12.5 -18t-21.5 -7h-33q-12 0 -21.5 7t-12.5 18q-41 -9 -76 -31q13 -23 -6 -42l-23 -23q-19 -18 -42 -5q-23 -35 -32 -75q12 -4 19 -13t7 -21v-32q0 -12 -7 -21t-19 -13q9 -40 32 -75q23 13 42 -5l23 -23q19 -19 6 -42q35 -22 76 -31q3 11 12.5 18.5
t21.5 7.5h33q12 0 21.5 -7.5t12.5 -18.5q41 9 76 31q-13 23 6 42l23 23q19 18 42 5q23 35 32 75q-12 4 -19 13t-7 21v0zM851 -20q-51 0 -87 35.5t-36 85.5t36 85.5t86.5 35.5t86.5 -35.5t36 -85.5t-36 -85.5t-86 -35.5v0zM768 101q0 -34 24 -57.5t58.5 -23.5t58.5 23.5
t24 57.5t-24 57.5t-58.5 23.5t-58.5 -23.5t-24 -57.5v0z" />
    <glyph glyph-name="ceshilianjie" unicode="&#xe636;" horiz-adv-x="1844" 
d="M651 -127h-543q-42 0 -71.5 30t-29.5 72v818q0 42 29.5 72t71.5 30h543q42 0 71.5 -30t29.5 -72.5t-29.5 -72.5t-71.5 -30h-441v-612h441q42 0 71.5 -30t29.5 -72.5t-29.5 -72.5t-71.5 -30v0zM1735 -127h-542q-42 0 -72 30t-30 72.5t30 72.5t72 30h440v612h-440
q-42 0 -72 30t-30 72.5t30 72.5t72 30h542q42 0 71.5 -30t29.5 -72v-818q0 -42 -29.5 -72t-71.5 -30v0zM1328 282h-813q-42 0 -72 30t-30 72t30 72t72 30h813q42 0 72 -30t30 -72t-30 -72t-72 -30v0z" />
    <glyph glyph-name="dongtai" unicode="&#xe637;" horiz-adv-x="1975" 
d="M1904 725q0 -70 -50 -120t-120 -50q-30 0 -43 4l-303 -303q4 -13 4 -43q0 -70 -50 -120t-120.5 -50t-120.5 50t-50 120q0 30 4 43l-217 218q-13 -5 -43 -5t-43 5l-388 -389q4 -12 4 -42q0 -71 -50 -121t-120.5 -50t-120.5 50t-50 120.5t50 120.5t121 50q29 0 42 -4
l388 388q-4 13 -4 43q0 70 50 120.5t120.5 50.5t121 -50.5t50.5 -120.5q0 -30 -5 -43l218 -217q13 4 42.5 4t42.5 -4l303 303q-4 12 -4 42q0 71 50 121t120.5 50t120.5 -50t50 -121v0z" />
    <glyph glyph-name="loading" unicode="&#xe644;" 
d="M512 608v0q-14 0 -23 9.5t-9 22.5v0v0v64v96q0 13 9.5 22.5t22.5 9.5t22.5 -9.5t9.5 -22.5v-96v-64q0 -13 -9.5 -22.5t-22.5 -9.5zM512 -64v0q-13 0 -22.5 9.5t-9.5 22.5v96v64v0v0q0 13 9.5 22.5t22.5 9.5t22.5 -9t9.5 -23v-0.5v-2.5v-5.5v-8.5v-11v-15.5v-20.5v-96
q0 -13 -9.5 -22.5t-22.5 -9.5v0zM331 533v0q-14 0 -23 10v0l-45 45l-68 68q-9 9 -9 22t9.5 22.5t22.5 9.5t22 -9l68 -68l46 -46q9 -9 9 -22t-9.5 -22.5t-22.5 -9.5zM806 58v0q-13 0 -22 9l-68 68q-36 35 -45 45v0q-10 9 -10 23q0 13 9.5 22.5t22.5 9.5t22 -9q8 -7 46 -46
l68 -67q9 -10 9 -23t-9.5 -22.5t-22.5 -9.5v0zM224 58v0q13 0 23 9l68 68q7 8 13.5 14.5l11 11l8 8t6 5.5t3.5 3.5t2 2l1 0.5q9 9 9 23q0 13 -9.5 22.5t-22.5 9.5t-22 -9q-8 -7 -46 -46l-68 -67q-9 -10 -9 -23t9.5 -22.5t22.5 -9.5v0zM256 352v0v0h-6.5h-19.5h-38h-96
q-13 0 -22.5 9.5t-9.5 22.5t9.5 22.5t22.5 9.5h96h64q13 0 22.5 -9.5t9.5 -22.5v0q0 -14 -9.5 -23t-22.5 -9zM768 352q-13 0 -22.5 9.5t-9.5 22.5v0q0 13 9.5 22.5t22.5 9.5h0.5h2.5h5.5h8.5h11.5h15.5h20h96q13 0 22.5 -9.5t9.5 -22.5t-9.5 -22.5t-22.5 -9.5h-96h-64v0z
M693 533q-13 0 -22.5 9.5t-9.5 22.5t9 22q7 8 46 46l67 68q10 9 23 9t22.5 -9.5t9.5 -22.5t-9 -22l-68 -68q-34 -34 -44 -45h-1q-10 -10 -23 -10v0z" />
    <glyph glyph-name="xialajiantou" unicode="&#xe86d;" 
d="M143 570q-6 6 -15 6t-15.5 -6t-6.5 -15t7 -15l399 -399l399 399q6 6 6 14q0 9 -6 15.5t-15 6.5t-15 -6l-369 -369z" />
    <glyph glyph-name="jinrujiantou" unicode="&#xe88e;" 
d="M622 394q-1 0 0 1l-243 -243q-6 -6 -6 -15t6 -15.5t15 -6.5t15 7l244 243q12 12 12 29.5t-12 29.5l-243 242q-6 6 -15 6t-15 -6t-6 -15t6 -15z" />
    <glyph glyph-name="mulu" unicode="&#xe890;" 
d="M107 704q-9 0 -15.5 -6.5t-6.5 -15t6.5 -15t15.5 -6.5h85q9 0 15 6.5t6 15t-6 15t-15 6.5h-85zM107 405q-9 0 -15.5 -6t-6.5 -15t6.5 -15t15.5 -6h85q9 0 15 6t6 15t-6 15t-15 6h-85zM107 107q-9 0 -15.5 -6.5t-6.5 -15t6.5 -15t15.5 -6.5h85q9 0 15 6.5t6 15t-6 15
t-15 6.5h-85zM320 704q-9 0 -15 -6.5t-6 -15t6 -15t15 -6.5h597q9 0 15.5 6.5t6.5 15t-6.5 15t-15.5 6.5h-597zM320 405q-9 0 -15 -6t-6 -15t6 -15t15 -6h597q9 0 15.5 6t6.5 15t-6.5 15t-15.5 6h-597zM320 107q-9 0 -15 -6.5t-6 -15t6 -15t15 -6.5h597q9 0 15.5 6.5t6.5 15
t-6.5 15t-15.5 6.5h-597z" />
    <glyph glyph-name="shouqijiantou" unicode="&#xe892;" 
d="M526 514q-7 7 -16.5 7t-15.5 -7l-168 -189q-5 -6 -5 -14q0 -9 6 -15t15 -6t16 7l168 189h-32l170 -189q6 -7 16 -7q8 0 14.5 6t6.5 15q0 8 -6 14l-169 189v0z" />
    <glyph glyph-name="zhankaijiantou" unicode="&#xe893;" 
d="M494 263h32l-168 189q-7 7 -16 7t-15 -6t-6 -15q0 -8 5 -14l168 -189q6 -8 15.5 -8t16.5 8l169 189q6 6 6 14q0 9 -6 15t-15 6q-10 0 -16 -7z" />
    <glyph glyph-name="rili" unicode="&#xe63a;" 
d="M288 576q13 0 22.5 9.5t9.5 22.5v160q0 13 -9.5 22.5t-22.5 9.5t-22.5 -9.5t-9.5 -22.5v-160q0 -13 9.5 -22.5t22.5 -9.5zM448 352h-224q-13 0 -22.5 -9.5t-9.5 -22.5t9.5 -22.5t22.5 -9.5h224q13 0 22.5 9.5t9.5 22.5t-9.5 22.5t-22.5 9.5zM800 352h-224
q-13 0 -22.5 -9.5t-9.5 -22.5t9.5 -22.5t22.5 -9.5h224q13 0 22.5 9.5t9.5 22.5t-9.5 22.5t-22.5 9.5zM448 192h-224q-13 0 -22.5 -9.5t-9.5 -22.5t9.5 -22.5t22.5 -9.5h224q13 0 22.5 9.5t9.5 22.5t-9.5 22.5t-22.5 9.5zM800 192h-224q-13 0 -22.5 -9.5t-9.5 -22.5
t9.5 -22.5t22.5 -9.5h224q13 0 22.5 9.5t9.5 22.5t-9.5 22.5t-22.5 9.5zM736 576q13 0 22.5 9.5t9.5 22.5v160q0 13 -9.5 22.5t-22.5 9.5t-22.5 -9.5t-9.5 -22.5v-160q0 -13 9.5 -22.5t22.5 -9.5zM928 736h-96q-13 0 -22.5 -9.5t-9.5 -22.5t9.5 -22.5t22.5 -9.5h64v-160
h-768v160h64q13 0 22.5 9.5t9.5 22.5t-9.5 22.5t-22.5 9.5h-96q-13 0 -22.5 -9.5t-9.5 -22.5v-704q0 -13 9.5 -22.5t22.5 -9.5h832q13 0 22.5 9.5t9.5 22.5v704q0 13 -9.5 22.5t-22.5 9.5zM128 16v432h768v-432h-768zM384 672h256q13 0 22.5 9.5t9.5 22.5t-9.5 22.5
t-22.5 9.5h-256q-13 0 -22.5 -9.5t-9.5 -22.5t9.5 -22.5t22.5 -9.5z" />
    <glyph glyph-name="tongzhi" unicode="&#xe63e;" 
d="M864 96h-61q-35 40 -35 128v288q0 97 -64.5 169.5t-159.5 84.5v34q0 13 -9.5 22.5t-22.5 9.5t-22.5 -9.5t-9.5 -22.5v-34q-95 -12 -159.5 -84.5t-64.5 -169.5v-288q0 -88 -35 -128h-61q-13 0 -22.5 -9.5t-9.5 -22.5t9.5 -22.5t22.5 -9.5h320v-64q0 -13 9.5 -22.5
t22.5 -9.5t22.5 9.5t9.5 22.5v64h320q13 0 22.5 9.5t9.5 22.5t-9.5 22.5t-22.5 9.5zM296 96q24 55 24 128v288q0 80 56 136t136 56t136 -56t56 -136v-288q0 -73 24 -128v0h-432v0z" />
  </font>
</defs>
</svg>
